<svg id="Layer_1" data-name="Layer 1" xmlns="http://www.w3.org/2000/svg" viewBox="0 0 547.71 214.05"><defs><style>.cls-1{fill:#1d1d1b;}</style></defs><title>Artboard 6</title><path class="cls-1" d="M64.83,26.86V89.41l13.35,16.67V43.45Zm41.88,52v62.81l13.35,16.68V95.49Zm41.88-61.3v175h13.35V17.6Zm20.93,0v175h13.36V17.6Zm-41.87,87.32v62.94L141,184.54v-63Zm-41.88-52v62.68l13.35,16.67V69.47ZM43.89,17.59v175H57.24v-175ZM23,17.6v175H36.3v-175Z"/><path class="cls-1" d="M490.57,92.36v97.37A47.83,47.83,0,0,0,502.7,184V98A42.17,42.17,0,0,0,490.57,92.36Zm19.53,12.25v73.07c7.9-8.53,12.13-20.39,12.13-34.76C522.23,127.08,518.17,113.85,510.1,104.61Zm-58.59,53.21v34.77h12.13V157.82Zm22.15,0H471v34.77H473a71.08,71.08,0,0,0,10.21-1.05V155.26C481,156.9,478,157.77,473.66,157.82Zm-41.68,0v34.77h12.13V157.82Zm-39.06,0v34.78h12.13V157.81Zm-19.53,34.78h12.13V157.81H373.39Zm39.06-34.78v34.78h12.13V157.82ZM392.92,29.1v85.69a46.15,46.15,0,0,0,12.13,6.93v-99A48,48,0,0,0,392.92,29.1ZM373.6,72.44c.09,14.08,4.62,26.09,11.92,35V35.87C378.22,44.27,373.5,56.24,373.6,72.44Zm38.85,10.19v41.24a46.48,46.48,0,0,0,9.09.92h3V90.07C418.38,89.59,414.55,87.08,412.45,82.63ZM432,90.16v34.65l12.13,0V90.17Zm42.47,0H471v34.7h2.67c4.3,0,7.34,1.21,9.46,3.23V90.79A62.35,62.35,0,0,0,474.45,90.2Zm-22.94,0v34.68l12.13,0V90.19ZM432,19.55V53.88h12.13V19.55Zm39.06,0V53.9h12.13V19.55Zm39.06,0V53.91h12.07l0-34.37Zm-19.53,0V53.91H502.7V19.55Zm-39.06,0V53.89h12.13V19.55Zm-27.41,0a58.4,58.4,0,0,0-11.65,1.15V61.34c2.1-4.08,5.95-6.93,12.13-7.4V19.55Z"/><path class="cls-1" d="M207.7,17.31V192.37h11.24V17.31ZM244.83,157.6v34.77H256V157.6Zm37,0v34.77H293V157.6Zm37,0v34.77h11.15V157.6Zm18.52,0v34.77h11.15V157.6Zm-37,0v34.77h11.15V157.6Zm-37,0v34.77H274.5V157.6Zm-37-140.29V192.37h11.15V17.31Z"/></svg>