<svg id="Layer_1" data-name="Layer 1" xmlns="http://www.w3.org/2000/svg" viewBox="0 0 517.62 192.93"><defs><style>.cls-1{fill:#1d1d1b;}.cls-2{fill:#fff;}</style></defs><title>Artboard 5</title><path class="cls-1" d="M23.27,9.78v175h6.88V9.78ZM51.1,18.21V80.75L58,89.34V26.76ZM78.94,52.8v62.72l6.88,8.6V61.35Zm27.84,34.6v62.9l6.88,8.59V96ZM134.62,9.79v175h6.88V9.79Zm27.83,0v175h6.88V9.79Zm-13.92,0v175h6.88V9.79Zm-27.83,94.9v63l6.88,8.59v-63ZM92.86,70.1v62.81l6.88,8.59V78.65ZM65,35.5V98.14l6.88,8.59V44.05ZM37.19,9.77v175h6.88V9.77Zm-27.86,0v175h6.9V9.79Z"/><rect class="cls-2" x="9.33" y="9.79" width="0.02" height="175"/><path class="cls-1" d="M397.47,75.32v40.93a44.3,44.3,0,0,0,6,.79v-36A11.82,11.82,0,0,1,397.47,75.32Zm14.31,7.19q-.64,0-1.26,0v34.67h6V82.51Zm11.78,0v34.66h6V82.52Zm13.05,0v34.68h6V82.53Zm13,0v34.71h6V82.54Zm13.05.11V117.7a10.85,10.85,0,0,1,6,3.51v-38A59.69,59.69,0,0,0,462.7,82.64Zm-39.14,67.48v34.82h6V150.13Zm-13,0v34.83h6V150.12Zm-13,0v34.85h6V150.1Zm-13,0v34.87h6V150.08Zm-13.05,0v34.88h6V150.06Zm-12.18,0-.43,34.9h5.57V150.05Zm77.41.1v34.8h6V150.15Zm13,0v34.78h6V150.17Zm13.05-.37v34.83q3.1-.3,6-.85V147A11.49,11.49,0,0,1,462.7,149.79Zm13.05-65V182a48.32,48.32,0,0,0,6-2.37V87.08A44.06,44.06,0,0,0,475.75,84.81Zm13,6.45v84.2a41.42,41.42,0,0,0,6-5.26V96.79A38.45,38.45,0,0,0,488.79,91.26Zm13,16.57V160c3.45-7,5.25-15.31,5.25-24.68C507.09,124.87,505.34,115.59,501.84,107.83ZM410.52,11.9V46.23h6V11.9Zm13,0V46.23h6V11.9Zm13.05,0V46.24h6V11.9Zm13,0V46.25h6V11.9Zm13.05,0V46.25h6V11.9Zm26.09,0V46.26h6V11.9Zm-13,34.36h6V11.9h-6ZM397.47,13V53.38a12.82,12.82,0,0,1,6-5.63V12.15A55.76,55.76,0,0,0,397.47,13ZM501.84,11.9V46.27H507l0-34.37ZM384.43,17.44v94.09a45.69,45.69,0,0,0,6,2.74V14.92A49.13,49.13,0,0,0,384.43,17.44Zm-13.05,9.67V101a47.56,47.56,0,0,0,6,5.79V21.73A43.43,43.43,0,0,0,371.38,27.11ZM358.46,64.79a58,58,0,0,0,5.88,25.68V37.22C360.59,44.56,358.39,53.68,358.46,64.79Z"/><path class="cls-1" d="M267.35,150V184.8h6V150Zm13,0V184.8h6V150Zm13,0V184.8h6V150Zm13.05,0V184.8h6V150Zm13.05,0V184.8h6V150Zm13,0V184.8h6V150Zm-78.27,0V184.8h6V150Zm-13.05,0V184.8h6V150Zm-13,0V184.8h6V150ZM215.17,9.8v175h6V9.8Zm-13,0v175h6V9.8Zm-13,0v175h6V9.8Z"/></svg>